<svg xmlns="http://www.w3.org/2000/svg" viewBox="0 0 1285.64 1230.6"><defs><style>.cls-1{fill:#fff;}.cls-2{fill:#ffa000;}.cls-3{fill:#d32f2f;}.cls-4{fill:#388e3c;}</style></defs><title>dude</title><g id="Layer_2" data-name="Layer 2"><g id="Stuff"><path d="M1283.51,1100.5c-7.38-52-25-176.39-136-245-4.87-3-43.93-26.32-97.75-37.8.43-.34.85-.7,1.24-1.07,44.35-42.57-304.35-156.25-272.75-283.77C793,473.16,914,474.63,914,351c0-29-53.07-98-53.07-98l-45.66,13.33s25.36,33.44,38.26,61.93C891,411,752.86,436.23,717.77,517.18c-48,110.72,98.64,259.11,226.82,298.84a217.34,217.34,0,0,0-73.09,29.48,241.34,241.34,0,0,0-49.69,42C548.83,916.75,387.13,894,357,827c-30.28-67.3,21.93-207.34-32-323-31.91-68.44-136-123-136-123-7,1-30,39-30,39,34,18,60.69,44.69,114,129,65.71,103.93-9.71,204.14,17,286,24.31,74.51,136.33,143.25,473.27,157.56-13.51,46.94-12.56,94.48,5.23,130.94,77.09,158,477.23,121.87,515,16C1285.36,1134.3,1287.2,1126.53,1283.51,1100.5Z"/><path id="Left_glasses" data-name="Left glasses" class="cls-1" d="M794.56,502.43c8.32,14.82,4.22,36.8-11.5,47-12.39,8.07-28.56,6.59-39.47-1.16-16.9-12-20.72-38.69-8-53.14C750.24,478.55,783.15,482.12,794.56,502.43Z"/><path id="Face" class="cls-2" d="M1257,605c-26-49-80-71-129-93-63-28-130-52-200-43-46,6-79,42-122,56-19.53,7.1-43,0-64.82,3.95,10.09,28.83,22.34,57,26.82,89.05,9,67-21,126-29,191-2,20-8,38-4,59,2,10,13,14,24,18,72,21,147,26,219,1,86-29,174-48,245-110,15-13,28-29,35-48C1274,689,1279,645,1257,605Z"/><path id="Mouth" class="cls-1" d="M763.73,696.74S844,740,1003,657,944.8,773.42,745.33,773.42C727,773.42,763.73,696.74,763.73,696.74Z"/><path class="cls-3" d="M764,697s-5-5,23,0,121-6,238.81-51.18C1041,640,860,745,764,697Z"/><path d="M885.7,533s41.52-22.83,54.1-20.93S970,533,970,546.3,952.39,533,942.32,529.18,866.83,542.5,885.7,533Z"/><path class="cls-4" d="M799.78,521.57a12.76,12.76,0,0,1,4.13.18c2.39.7,3.11,2.42,4.13,4.84a22.06,22.06,0,0,1,1.12,4.78,6.29,6.29,0,0,1,0,3.47c-.42,1.19-1.5,2.89-2.41,2.84-1.09-.07-.71-2.58-3.29-6.27-1.92-2.75-3.46-3.25-4.29-3.42a13.34,13.34,0,0,0-4.91.15c-2.29.42-2.34.92-4.14,1.14-2.3.29-5.37-.14-5.92-1.1-.4-.7.66-1.47,2-2.47a19.91,19.91,0,0,1,5-2.58A29.62,29.62,0,0,1,799.78,521.57Z"/><path class="cls-1" d="M830,512c18.08-5.85,41.26,3.52,49,23,6.1,15.36.9,32.75-10,43-16.88,15.86-47,14.16-60-3C794,555.29,805.23,520,830,512Z"/><path class="cls-4" d="M879.16,562.4S987,560,1003,562s104,6,107,10,19,52,11,60-18,0-18,0,1-42-2-43-225.79-18.55-225.79-18.55L875,566Z"/><path class="cls-3" d="M745,773s117.42,10.68,281.71-101.66C1003,695,837,805,745,773Z"/><path d="M942,235s-41.9,56-59,50,21.3-64,21.3-64Z"/><path d="M761.79,258.83s14.47,14.6,23.1,12.44-1.9-16.76-1.9-16.76Z"/><path class="cls-4" d="M867,113s5.53-15.3,34.06-11c-5.94-12.68-18.82-16.59-26.85-17.24s36.95-19,53.22-7.82C922.32,66.06,898.05,43.74,879.35,58c4.57-12.64,37.5-14.26,45.9-10.47C915.13,31.87,897,13.29,874.71,29.28,861.63,15.53,863.67,5.73,822.88,0c2.43,9.91,29.76,17.53,31.52,27.2,0,0-32.71-15.6-46.17-5.42,28.18,17.72,34.65,18.55,39.67,23.38,0,0-43.4-8.93-62.09,13.63,11.73,5,37.6,8.34,40.62,12.44,0,0-34.86-1.33-38.47,8.64,29.32,8.35,41.54,29.45,40.07,30S858.36,118.13,867,113Z"/><path class="cls-2" d="M862.76,112.2s-61.59-14.76-74.88,24-35.23,145.19,15.54,154.53S876.77,300,901.36,257,908.1,132.37,898,125,867.65,113.22,862.76,112.2Z"/><path d="M935,207.43c-9.42-15.23-18.22-9.76-51-31.14-3.22-2.1-8.17-5.43-13.84-4.33-7.51,1.47-13.71,10.23-14.36,16.78-2.47,25.14,72.55,61.66,85.28,47.92C946.95,230.35,939.11,214,935,207.43Z"/><path d="M822.42,180.49c-.33-.25-.67-.49-1-.72a11.75,11.75,0,0,0,3.82-1.39c6-3.51,8.67-10.08,7.45-15.51-2.34-10.45-18.66-15.71-29.52-19.21a62.72,62.72,0,0,0-15.41-3.17c-4.12-.25-20.06-1.2-24.16,5.71a6.74,6.74,0,0,0-.85,2.46l-.1,0a52.85,52.85,0,0,0,5,22.31h-.07c-6,1.25-10.17,6.31-10.93,10.61a9.42,9.42,0,0,0,.66,5.28,112.9,112.9,0,0,0,8.15,19.23,17,17,0,0,0-4.68,1.81c-6.28,3.72-10.9,10.72-8,16.46a9.38,9.38,0,0,0,1.15,1.73c2,3.94,6.33,11.63,12.5,17-5.13,2.36-7.95,4.65-8.16,6.87-.4,4.26.89,8.9,7.11,10.66,7.7,2.18,17.09,1.84,34.9-3.94,20.27-6.57,23.54-11.6,23.73-15.1.21-3.78-1.91-7.3-6.47-8.63-2.4-.7-5.52-1.33-11.55-.71l.26-.06-5.31-.76c13-1,15.48-1.88,17.9-3.3,1.18-.69,9.12-5.47,8.26-11.55-.63-4.49-5.72-7.22-7.57-8.21-2.75-1.47-5.92-2.49-12.21-3,11.75-1.07,21.46-4.67,23.64-9.64C833.75,189.25,823.64,181.41,822.42,180.49ZM783.78,237h0Z"/><path class="cls-4" d="M90,366s-53,26-58,33S1,454,0,458s133,81,139,75,36-64,37-66,3-53,0-55S90,366,90,366Z"/><path class="cls-1" d="M294.93,220.86c14.55,12.73,25.77,34.79,21.9,41.23C307,278.52,181.54,416.71,176.39,418s-88.9-47.67-86.33-51.54c0,0,76-173.94,81.17-179.1s3.46-6.44,21.9-6.44C229.22,180.92,264,193.8,294.93,220.86Z"/><path class="cls-2" d="M200.51,168.5s7-32,0-45-20-16-25-13-12,13-5,20,20,8,25,14C197.53,146.93,202.51,154.5,200.51,168.5Z"/><path class="cls-2" d="M239.11,143.37,262.9,47.31s.37-10.32-6.51-11.59-8.25,8.87-8.25,8.87S232,135.13,239.11,143.37Z"/><path class="cls-2" d="M195,92s-12.15-44.77-23-52c-6-4-11-4-14.51-1.91a11.63,11.63,0,0,0-3.2,17.71C160.12,63,189,71,195,92Z"/><path class="cls-2" d="M291,134s8-27,23-34,22,5,20,10-12,9-21,10S291,134,291,134Z"/><path class="cls-2" d="M319,215.43s33.36-4.75,51.16-.59c7.79,1.78,7.79,4.75,5.56,6.53s-20-.59-24.47-1.78S321.23,215.43,319,215.43Z"/><path class="cls-2" d="M277,280l-8-12a62.69,62.69,0,0,1-6.57-.48c12.05-17.65.66-31.76,8.57-33.52,9-2,12-11.76,12-14,0-8-4.93-9.23-8-10-4-1,7,11-19,15-4.94.76-6,10-15,15a11.72,11.72,0,0,1-6,1.51c-6.8-7.92-13-14.71-11.48-15.48,17.55-8.7,19.13-29,20.48-33,2-6,1.13-11.57-1-17-2-5.23-9.53-10.59-16-10-4,.37-10,8-12,15s8,14,6,27c-.89,5.77-8,10.25-15.59,13.46C194.2,214.64,176.2,205.85,168,212c-12,9-51,118-51,118s65.86,58.07,80,51c18-9,90-101,90-101Z"/><path class="cls-1" d="M294.93,220.86C264,193.8,229.22,180.92,193.14,180.92c-18.45,0-16.75,1.29-21.9,6.44-.54.54-1.86,2.93-3.78,6.78,4.88-5,3.51-6.22,21.68-6.22,36.08,0,70.87,12.88,101.79,39.94,13.1,11.46,23.49,30.48,22.62,38.86a56.33,56.33,0,0,0,3.29-4.63C320.7,255.65,309.47,233.59,294.93,220.86Z"/><path class="cls-2" d="M285,178s16-11,20-12,8,0,10,4-3,8-6,8S290,174,285,178Z"/><path d="M103.9,426.65S67.75,415,56.13,438.27s-.63,34.86,9,38.73c19.36,7.75,41.31,0,47.77-11.62S119.39,433.11,103.9,426.65Z"/><path class="cls-1" d="M86,438s-15,17-15,22,2,10,7,7,17-19,18-24S90,433,86,438Z"/><path class="cls-1" d="M132.26,330.46l-8.51-2.93c.11-.32,11.1-32.18,25.15-63.62C175.29,204.83,189.28,198,197.51,198v9c-3.13,0-15.28,4.37-40.39,60.58C143.23,298.67,132.37,330.15,132.26,330.46Z"/><path d="M113,410c16,12,65,26,67,23s40-26,42-32,9.7-25.36,1.35-31.68c0,0-20.35,15.68-36.35,6.68-5.54-3.12-13.23-18.58-17-28-4-10-15-26-32-33-18.31-7.54-18.86-17.26-15.28-22.68C100,289,100,304,103,310c-7,0-13,15-6,21-10,2-13,18-8,23-13,8-6,15-4,20S97,398,113,410Z"/></g></g></svg>