<svg xmlns="http://www.w3.org/2000/svg" viewBox="0 0 117.04 113.31"><defs><style>.cls-1{fill:#fff;}.cls-2{fill:#004ba0;}</style></defs><title>facebook</title><g id="Layer_2" data-name="Layer 2"><g id="Stuff"><path class="cls-1" d="M63.18,0S1,4.64,0,46.43s14.86,65.93,54.79,66.86S117,77.07,117,56.64,105,3.71,63.18,0Z"/><path class="cls-2" d="M53,97.5s-7.43-26-6.5-37.14A86.74,86.74,0,0,0,27,63.14s-8.36-7.43-4.64-12.07,20.43-6.5,20.43-6.5-5.57-13-2.79-17.64S52,16.71,67.83,15.79c4.64,0,5.57,9.29,3.71,10.21S53.9,28.79,53.9,30.64s.93,9.29,2.79,11.14,16.71-5.57,19.5-4.64,5.57,9.29,4.64,10.21-19.5,4.64-19.5,6.5,9.29,37.14,8.36,39S62.25,101.22,53,97.5Z"/></g></g></svg>