<svg xmlns="http://www.w3.org/2000/svg" viewBox="0 0 115.16 114.01"><defs><style>.cls-1{fill:#fff;}</style></defs><title>github</title><g id="Layer_2" data-name="Layer 2"><g id="Stuff"><path class="cls-1" d="M59.19,0C69.92-.39,112.89,12.45,115,48.72S92.48,114,57,114,1.21,72.55.13,57,3.35,2.08,59.19,0Z"/><path d="M74,93.27c3.71-9.28,4-21.68-2.44-28.08a5.81,5.81,0,0,0-4.28-1.84c1.57,0,17-2.53,17.87-12.65.91-10.87-4.53-19-5.43-19.92,0,0,3.62-8.15-.91-11.77-9.05,0-13.58,4.53-13.58,4.53s-10.87-2.72-18.11,1.81c0,0-7.24-7.24-14.49-5.43-1.81,3.62-1.81,6.34,1.81,12.68,0,0-10,10.87-3.62,21.73s14.49,10,14.49,10a10.11,10.11,0,0,0-3.62,6.34c-.91,4.53-14.49,3.62-15.39,0s-6.19-7-8.91-5.2c.91.91-.15-.23-.15-.23s5.43,5.43,5.43,10c0,9.1,17.2,7.24,19,6.34s-1.82,9.88,0,14.49S71.28,100.15,74,93.27Z"/></g></g></svg>