<svg xmlns="http://www.w3.org/2000/svg" viewBox="0 0 47.29 64.06" width="32px" height="32px"><path fill="#ffa000" d="M46.61,35.64c-1.69-2.24-8.75-4.71-10.93-5.43a34.53,34.53,0,0,0-.33-6.58c-.72-1.93-3-17.11-3.49-20.15s-5.2-5.32-6.11-1.43,0,17.57.45,20.61c-3.46-.22-7.39-3.49-9.67,1.25-4.28.76-7.35-1.13-8.52,3.87-4.83.63-7.74.53-8,9.25C0,37.61,1.19,52,5.15,57.58s16.52,6.24,20.16,6.47c3.46.22,10.76-8.13,13.67-10.86C43.49,49,49.29,39.2,46.61,35.64ZM33.7,46.79s-.09-6.73,0-10.29C35,37.26,39,38,39.46,38.66,41.42,41.65,33.7,46.79,33.7,46.79Z"/></svg>
