<svg xmlns="http://www.w3.org/2000/svg" viewBox="0 0 122.49 113.11"><defs><style>.cls-1{fill:#fff;}</style></defs><title>insta</title><g id="Layer_2" data-name="Layer 2"><g id="Stuff"><path class="cls-1" d="M105.75,17s-35-31-75.92-9.38c-37,19.52-38.09,55.82-11.55,85.66S86.8,114,101.75,100,137.75,42,105.75,17Z"/><path d="M93.75,26c-1-1-2-3-5-3,0,0-57-2-60,0s-4,58,0,62,3,2,8,4,49,1,52,0,9-1,9-5S94.75,27,93.75,26Zm-55,52c-2-3-4-40,0-44s41.32-1.34,44,0c4,2,5,39,3,42C84.08,78.54,40.75,81,38.75,78Z"/><path d="M57.75,43c-5.08.46-11,7-11,13s4,16,14,15,15-12,14-15S68.75,42,57.75,43Z"/><path d="M78.75,40s-4-3-7,0,0,5,1,6S81.75,47,78.75,40Z"/></g></g></svg>