<svg xmlns="http://www.w3.org/2000/svg" viewBox="0 0 219.77 156.02"><defs><style>.cls-1{fill:#ffa000;}</style></defs><title>links</title><g id="Layer_2" data-name="Layer 2"><g id="Layer_4" data-name="Layer 4"><path class="cls-1" d="M12.84.37C5.85,2.61-1.91,51.84.42,54.08S33,57.81,35.35,56.32,33.8,39.2,32.24,38.46,19,37.71,19,37,26,2.61,23.71,1.12,12.84.37,12.84.37Z"/><path class="cls-1" d="M50,1S39.22,53.18,42.82,57.32s16.46,0,18.26,0S69,6,68.07,3.51,54.54-1.45,50,1Z"/><path class="cls-1" d="M69.89,51.74c1.37,3.8,13.68,5.69,15,5.69S95.19,27.7,95.19,27.7s8.89,26.57,10.94,27.84,12.31.63,13.68-.63S131.43,11.25,129.38,10,115.7,3.66,113,5.56s-3.42,17.08-3.42,17.08S102.71,2.4,100,2.4s-15-1.9-17.1,0S69.89,51.74,69.89,51.74Z"/><path class="cls-1" d="M143.62,9.72c0,3.2-11.64,47.92-9.31,48.64s15.52,3.58,17.08,0,1.55-17.88,1.55-17.88,8.54,17.88,11.64,18.6,13.19-2.15,14-3.58-17.08-24.32-17.08-24.32S180.1,14,178.55,12.59s-9.31-7.15-11.64-7.15-13.19,12.87-13.19,12.87.78-10-.78-10.73S143.62,4.72,143.62,9.72Z"/><path class="cls-1" d="M218.13,17.08c-1.55-3.1-17.85-14.75-28.72-2.33s-.81,26.39,7,26.39c5.43,0,10.09,4.66,7,6.21s-14.3-.94-17.08-2.33c-1.55-.78-7,9.31-3.88,11.64s22.4,8.42,33.37-1.55c8.54-7.76,1.55-22.51-4.66-23.28-3.18-.4-14,0-14-6.21,0-1.74,3.1-3.88,15.52-.78C215,25.4,218.13,17.08,218.13,17.08Z"/><path class="cls-1" d="M127.32,75.29c2.33-3.1,21.73-5.43,24.06-3.88s14,31-3.1,58.21c4.66-.78,12.42-1.55,12.42-1.55,2.33,3.1-26.39,27.16-31.82,27.94s-6.21-32.6-1.55-34.15c1.65-.55,4.66,6.21,4.66,6.21C148.28,105.55,125,78.39,127.32,75.29Z"/></g></g></svg>