<svg xmlns="http://www.w3.org/2000/svg" viewBox="0 0 114.32 114.14"><defs><style>.cls-1{fill:#fff;}</style></defs><title>linkedin</title><g id="Layer_2" data-name="Layer 2"><g id="Stuff"><path d="M27.92,6.93C45.14-.63,80.84-5.49,97.38,11.45s26.46,64.39,3.31,87-70.57,19.2-87.11,0S-10.67,23.88,27.92,6.93Z"/><path class="cls-1" d="M25.32,43.14s-2,35,0,40,13,2,14,0,3-38,1-40S27.32,40.14,25.32,43.14Z"/><path class="cls-1" d="M31.63,23.28c-2.1.35-5.31,1.06-5.31,7.44s5.31,8.5,9.56,6.38,6.38-5.31,6.38-7.44S38,22.21,31.63,23.28Z"/><path class="cls-1" d="M48.32,45.14s-3,35-2,38,14,3,14,1,2-25,2-29c3-4,8-6,12,0s0,27,0,28,13,4,15,1,5-35,2-38-9-10-19-10-12,1-13,3c-1-3-4-4-7-4S49.32,33.14,48.32,45.14Z"/></g></g></svg>