<svg xmlns="http://www.w3.org/2000/svg" viewBox="0 0 124.82 118.35"><defs><style>.cls-1{fill:#f50;}.cls-2{fill:#fff;}</style></defs><title>soundcloud</title><g id="Layer_2" data-name="Layer 2"><g id="Stuff"><path class="cls-1" d="M108.1,19.88C82.53-11.38,28.45-3.06,11,26c-3.71,6.19-7.7,12.24-9.54,19.2a47.62,47.62,0,0,0,.9,26.54C14.52,110,62.72,132.36,98,108.53A60.19,60.19,0,0,0,117.79,85.8c9.08-17.85,10.17-40-1.57-56.8C113.87,25.63,110.68,23,108.1,19.88Z"/><path class="cls-2" d="M40.07,75.21l.16-31.15a24.19,24.19,0,0,0-2.42,1.07L36.86,73l-.07,2.17Z"/><path class="cls-2" d="M43.07,75.21h4.38L47.63,44a10.16,10.16,0,0,0-4.39-.72Z"/><path class="cls-2" d="M50.45,75.21H53V47.31a22.39,22.39,0,0,0-2.4-1.76Z"/><path class="cls-2" d="M56,75.21H59.6L59.41,36A10.87,10.87,0,0,0,56,38.89Z"/><path class="cls-2" d="M20.9,56.32A17,17,0,0,0,19,58.88C14.72,66,17.25,72.41,21.35,74.5Z"/><path class="cls-2" d="M111.77,59.21c-3.33-8.67-11-14-21.67-9.33-3-6.67-7-17.33-23-16a22.59,22.59,0,0,0-4.7.86l.19,40.47h37.84C102.77,75.21,115.1,67.88,111.77,59.21Z"/><path class="cls-2" d="M24.37,75.21H27.7l-.49-21.44a5.24,5.24,0,0,0-3.36.31Z"/><path class="cls-2" d="M30.7,75.21h3.08l.92-27.36,0-.92a17.21,17.21,0,0,0-4.59,4.34Z"/></g></g></svg>