<svg xmlns="http://www.w3.org/2000/svg" viewBox="0 0 118.88 110.97"><defs><style>.cls-1{fill:#388e3c;}.cls-2{fill:#fff;}</style></defs><title>spotify</title><g id="Layer_2" data-name="Layer 2"><g id="Stuff"><path class="cls-1" d="M20.26,16.71s-37,34-11,71,85,23,100,5,11-59-2-76S47.26-10.29,20.26,16.71Z"/><path class="cls-2" d="M33.5,76.95S53.24,63.56,65.84,88.4c1.1,2.8,9.86,2.22,9.09-2.86S69,64.15,57.68,61.41s-27,1.12-29,5.88S29.51,77.55,33.5,76.95Z"/><path class="cls-2" d="M33.83,37.26s34.63-15.74,57.49,18c2.28,5.31,8.93-4.58,5.8-10.58-2.56-4.91-14.68-18.79-27-21.79s-22.85.47-30.75,2.22C27.93,27.65,29.49,37.92,33.83,37.26Z"/><path class="cls-2" d="M33.08,56.78S68.9,44.09,78.38,77.41c1.2,3.05,11.7-1,10.86-6.49S81,45.5,68.67,42.5s-39.55-2.1-41.72,3.08S28.73,57.43,33.08,56.78Z"/></g></g></svg>