<svg xmlns="http://www.w3.org/2000/svg" viewBox="0 0 604.23 353.87"><defs><style>.cls-1{fill:#ffa000;}.cls-2{fill:#fff;}</style></defs><path id="U" class="cls-1" d="M177.86,115.7s1.25,163,18.68,184.66S317.93,319,317.11,278,289.3,97.8,286.42,92.53s-48.07-8.2-47.85,2.8,17.39,147.12,16,152c-2,7-11,9-14,3-9.6-19.2-10.92-145.66-19-147.5C217.59,101.91,183.42,93.59,177.86,115.7Z"/><path id="U-2" data-name="U" class="cls-1" d="M325.57,98.33s-2,167,3,177,49.88,25.53,92,15c32-8,30-116,28-139-.88-10.16-4-61-7-63s-46-5-48,3,11,137,4,145c-2.37,2.71-13,6-16,3s-4-77-4-87,0-60-1-62S327.57,73.33,325.57,98.33Z"/><path id="D" class="cls-1" d="M604.05,198.74c-4.07-55-29.53-90.63-58-100.81s-50.92-10.18-60.08-9.16c-7.71.86-14.26,3.05-14.26,11.2,0,0-8.15,173.11-5.09,180.24s37.68,8.15,56,6.11S608.13,253.73,604.05,198.74Zm-60,12.09c-3,17-30,27-32,20s6-86,6-86C540.07,128.83,547.07,193.83,544.07,210.83Z"/><path id="R" class="cls-1" d="M111.28,208.75s97.28-40.32,36-87S5.63,131.9.46,140.28,35.28,352.86,35.28,352.86c21.4,5.92,50.65-16.36,50.65-16.36L61.46,241.37s74.45,83.73,83.77,82,34.69-32.64,34.69-32.64ZM46.57,186.33c-3,1-3-26-3-26,0-7,51-25,62-11C110.55,155.67,49.57,185.33,46.57,186.33Z"/><path class="cls-2" d="M285.85,211.61c-1.39-20.32-3.15-40.64-5.61-60.87-1.66-13.68-2.77-28.42-7.38-41.51-2.55-7.23-14.15-4.12-11.57,3.19,3.62,10.27,4.8,21.65,6.21,32.39,2.17,16.56,3.75,33.2,5.09,49.84,1.32,16.38,2.4,32.78,3,49.19.39,10.14,1.22,20.75,0,30.88,0,.27-.11.68-.16.88s-.06.26-.08.34c-1.32,1.37-3.76,2.4-6.2,3.12-7.62,2.25-15.85,2.46-23.72,2-7.5-.48-15.73-1.68-22.34-5.48a20.53,20.53,0,0,1-3-2.14l-.08-.07-.09-.18a10.9,10.9,0,0,1-1.62-3.59c-3.62-10.61-4.71-22.24-5.87-33.32-1.64-15.61-2.62-31.28-3.39-46.95q-1.68-34.2-2-68.46c-.05-7.72-12.05-7.74-12,0,.15,20.78.76,41.56,1.7,62.32.75,16.62,1.72,33.24,3.35,49.79,1.25,12.73,2.41,26,6.16,38.32,1.15,3.76,2.59,7.73,5.36,10.63,5.51,5.75,14.52,8.3,22.08,9.69a94.07,94.07,0,0,0,27.42,1.11c7.31-.82,15.69-2.16,21.47-7.11,7.1-6.08,5.51-18,5.42-26.41C287.85,243.3,286.93,227.43,285.85,211.61ZM275.35,276c0,.11,0,.08,0,0Z"/><path class="cls-2" d="M414.57,106.33c2.76,31.78,5.47,63.56,4.66,95.49-.39,15.56-.9,31.55-4.23,46.81a54.06,54.06,0,0,1-2,7.32,15.39,15.39,0,0,1-.9,2,9.79,9.79,0,0,1-.6,1,3.49,3.49,0,0,1-.57.55,28,28,0,0,1-5.08,2A47.3,47.3,0,0,1,397,262.8a95.43,95.43,0,0,1-22.68-1.16c-5.62-1-12.18-2.17-16.92-5.58-.13-.09-1.6-1.18-1.09-.83-1-.65-.63-1.62-.29-.32-.28-1.07-.52-2.12-.72-3.21l-.09-.46c0-.09,0-.27-.06-.61-.09-.87-.18-1.73-.26-2.6-.2-2.28-.34-4.56-.46-6.84-1.29-25.52-.47-51.21.17-76.74q.74-29.06,2-58.11c.33-7.72-11.67-7.71-12,0-1.93,44.77-4.38,90.07-2.12,134.85.36,7.17-.06,16.59,5.17,22.22,9.25,9.94,28.12,11.24,40.7,11.56,11.25.29,28.3,0,34.39-11.46,2.8-5.29,4-11.49,4.94-17.33,1.37-8.29,2.17-16.68,2.73-25.07,2.55-38.38-.48-76.54-3.8-114.78C425.91,98.7,413.9,98.63,414.57,106.33Z"/><path class="cls-2" d="M576.15,167.73c-4.35-19.16-12.63-42.47-29.25-54.49-10.24-7.4-24.81-11.9-37.34-12.84-8.23-.62-20.25,1.36-21.78,11.34,0,.22-.05.43-.07.64a6.85,6.85,0,0,0-.15,1q-2.41,30.91-4.58,61.85c-1.91,27.11-4.51,54.42-4.66,81.61,0,2.9-.26,6.39,1.22,9,2.29,4,7.34,5.25,11.55,5.89,14.46,2.18,30.27-.52,43.86-5.56,17.13-6.35,32.09-17.51,39.1-34.84C582.09,211.4,580.8,188.24,576.15,167.73Zm-86.38,91.39-.37-.13-.12,0,0,0h0l0,0c-.11,0-.09,0,0,0v0l0,0C489.51,259,490.2,259.24,489.77,259.12Zm73.39-32.74c-5.55,14.63-19,23.93-33.37,28.86A92.3,92.3,0,0,1,509,259.89c-5,.5-12.12.68-15.91,0-.86-.15-1.7-.37-2.55-.56,0-2-.22-4-.18-5.92.61-25.77,2.73-51.54,4.53-77.25q2.19-31.19,4.61-62.37c0-.09.14-.11.38-.29a7.62,7.62,0,0,1,3.41-1.08c4.24-.63,8.73.1,12.87,1,9.07,2,19.82,5.38,26.68,12,12,11.55,18.12,29.65,21.7,45.49C568.64,188.86,569.8,208.89,563.16,226.38Z"/><path class="cls-2" d="M489.27,258.94h0Z"/><path class="cls-2" d="M157.81,296.09c-17.78-15-32-34-47.35-51.37-13-14.6-27.91-31.82-46.64-39.35,8.51-4.43,16.88-9.13,25.12-14,15.35-9,32-18.54,44.65-31.3,3.57-3.61,7.9-8.69,6.49-14.2-2.13-8.3-12.37-15.12-19.24-19-23.77-13.54-52.05-12.78-75.89.11a87,87,0,0,0-21.81,16.65c-3,3.19-5.87,5.86-5.31,10.52.77,6.56,2.2,13.1,3.29,19.61l15.27,91.12,7.29,43.5c1.3,7.78,2.2,15.76,3.93,23.46.08.36.12.73.18,1.09,1.27,7.6,12.84,4.38,11.57-3.19L49.22,269.27l-8.83-52.68q1.87-.81,3.72-1.64c12.54-3,25.3,6.34,34.73,14.63,17,14.9,31,32.87,45.83,49.79,7.74,8.83,15.66,17.62,24.65,25.21C155.19,309.52,163.72,301.08,157.81,296.09Zm-29.5-148.2h0l0,0Zm.12-.36-.15.21C128.16,146.55,128.43,147.08,128.43,147.53ZM35,148.73A78,78,0,0,1,55.4,135.11c20.35-9.45,44-8.17,62.81,4.19A37,37,0,0,1,127,147c.33.42.61.84.92,1.28-.15.23-.3.47-.46.7l-.05.08-.18.22c-.32.39-.67.77-1,1.14a61.94,61.94,0,0,1-5.69,5.34c-12,10.15-25.81,18.36-39.34,26.25-13,7.58-26.28,14.94-40,21.21-1,.24-2,.54-2.93.88l-5.23-31.21L29.9,154A70,70,0,0,1,35,148.73Z"/><path class="cls-2" d="M18.57,40.33s-1.5,22.5,4.5,25.5c13-3,21-5,21-5s3,25,6,27,28-6,28-6-3-25-7-29a79.64,79.64,0,0,0,24.5-4.5c0-2.67-2-21-9-24C76.57,26.33,25.07,35.83,18.57,40.33Z"/><path class="cls-2" d="M200.46,46.53c-3-23-22.42-29.81-34.27-28.71,0,0-29.55-2.81-31.15,25.42s17.47,31.2,28.21,29.85S203.49,69.56,200.46,46.53Zm-35.89,5.8c-6,1-7-3-8-8s6-7,6-7c8-1,9.46,3.83,10,6C173.57,47.33,170.57,51.33,164.57,52.33Z"/><path class="cls-2" d="M240.57,61.33s15-51,18-54c0,0,2-1,3,0s16,16,18,16,14-19,16-20,3,0,4,1,27,43,24,47c-1.2,1.6-22,7-23,7s-5-16-7-16-9,15-10,16-13-14-15-14-6,21-8,22S242.57,66.33,240.57,61.33Z"/><path class="cls-2" d="M387.57,7.33c-1-2-2-2-4,0s-29,51-29,51c2,3,19,4,21,4s2-8,3-10,11-1,12-1,1,13,4,13,25-5,25-6S388.57,9.33,387.57,7.33Zm-1,30c-2,1-5,0-5,0,0-2,2-6,3-7S388.57,36.33,386.57,37.33Z"/><path class="cls-2" d="M503.22,6.77s-3.16,16.31-6.58,16.92-6.35-4.26-9.77-3.65-2.25,6.25-.58,6.4,12.6.22,15,1.36,9.11,11,5.19,17.06-11.59,16.47-23.28,15.41-20.37-7.38-22.8-8.52,5.75-17,5.75-17,11.19,6.54,15.45,6,7.6-.23,7.76-2.06-16.19,2.22-21.29-6.54-4.35-17-2.44-19.58S470.15.09,479.42,0,499.46,1.82,503.22,6.77Z"/></svg>
