<svg xmlns="http://www.w3.org/2000/svg" viewBox="0 0 131.51 123.79"><defs><style>.cls-1{fill:#fff;}</style></defs><title>vsco</title><g id="Layer_2" data-name="Layer 2"><g id="Layer_4" data-name="Layer 4"><path d="M78,1.54C74,.9,69.88.48,65.81.21,32-2.06,5.58,14,.7,51.46c-4,30.88,9.38,65.11,40.82,70.47a132,132,0,0,0,47.61-.62c45-8.86,58.29-82,19.61-108.47C99.54,6.53,88.91,3.25,78,1.54Z"/><path class="cls-1" d="M91.58,19c-1.31-1.31-3.75-2.8-12.57-1.08C69.15,19.85,70.82,36,73.34,38.59s9.45,1.72,12.6,1.72,4.41,9.47-.63,7.75S75,44.14,70.82,46.34c-1.24.66-2.24,4.66-1.26,6.89,1.29,2.93,14.34,4.32,21.27,0s5.54-16.73,2.59-18.8-15.89.64-15.72-4.57c.31-9.48,10.16-3.32,13.88-5C93.08,24.2,92.58,20,91.58,19Z"/><path class="cls-1" d="M100.33,70.83c-2.88-4.71-7.92-6.73-13.24-7,0,0-16.56-1.54-20.75,13.21C64.81,82.48,64.49,88,67.72,93c4.72,7.22,14,8.07,21.91,8.55,3.36.21,6.52-.35,9-2.78s3.72-6.2,4.08-9.8C103.36,82.87,103.63,76.23,100.33,70.83ZM94.39,88.5c-1.87,5.63-9.12,5.25-11.75,5.06a10.25,10.25,0,0,1-9.31-10.88c.19-8.32,6.75-9.5,6.75-9.5,8.38-2,13.69,2.69,15,4.75S96.27,82.88,94.39,88.5Z"/><path class="cls-1" d="M50.34,53.86c-2.65,0-5-.63-6.08-1.59C42.56,50.68,37.48,33.6,34.62,23a5.69,5.69,0,0,1,5.27-4.34,3.73,3.73,0,0,1,1.56.32c1.41,1.13,4.08,13.85,5.09,18.63,1.11,5.28,1.11,5.28,2,5.28a1,1,0,0,0,1-1.16c0-2.68,2.31-20.4,3.24-22.85a7.71,7.71,0,0,1,2.72-.5,7.85,7.85,0,0,1,6,2.67c-.26,2.24-6.38,29.87-7.72,32.23A8,8,0,0,1,50.34,53.86Z"/><path class="cls-1" d="M43.08,99.37a32.43,32.43,0,0,1-6.3-.56,10.48,10.48,0,0,1-7.12-5.44c-3.31-5.75-3.28-14.19-1.57-19.22,2.46-7.22,7-10.89,13.87-11.22q1.12-.05,2.26-.05a59.37,59.37,0,0,1,10.6,1c.29.23.63,2.09.08,4.78-.52,2.53-1.39,3.74-1.75,3.83a2.76,2.76,0,0,1-.64.07h0a9,9,0,0,1-1.7-.23l-.21,0a37.76,37.76,0,0,0-7.3-.71l-1.19,0a6.45,6.45,0,0,0-3.85,1.06,6.89,6.89,0,0,0-1.94,2.89,18.17,18.17,0,0,0-1.58,5c-.65,5.59,4.51,8,6.21,8.79a5,5,0,0,0,2.08.31,68.28,68.28,0,0,0,8.62-1c1.58-.25,3.09-.48,3.77-.52.85,1.35,2.35,7.27,2.16,8.62C56.6,97.59,50.32,99.37,43.08,99.37Z"/></g></g></svg>