<svg xmlns="http://www.w3.org/2000/svg" viewBox="0 0 1920 480.86"><defs><style>.cls-1{fill:#388e3c;}.cls-2{fill:#ffa000;}</style></defs><title>wave</title><g id="Layer_2" data-name="Layer 2"><g id="Stuff"><path class="cls-1" d="M1920,429.56V0c-42.82,8.66-78,19.5-78,19.5s-319,148-438,173-365-40-365-40l-36.77,25c-88.87-34-185.45-70.15-160.15-70.11l.07,0S268-7.5,0,60.5V252.72l5-1.53a162.69,162.69,0,0,0-5,23.89v56L432.08,216.3c-2.21-17.63,331.07-3.24,513,0L730,362.5Z"/><path class="cls-2" d="M1140.26,305.25c-173.06,12.11-293.79,16.13-279.1,12.85,44-9.82,330.32-188.77,152.85-205.14-59-3.74-116.4-5.49-171.94-5.58q-71.17-.12-138.29,3.22C395.28,144.5,148.83,207.41,0,252.72v22.36c174.9-32.88,318.07-53.29,432.08-58.78l6.43-.3C531,201.5,800,221,774.38,236.27c-18.67,11.16-104.22,55.56-174.32,103.94-80.71,55.71-140.93,116.69-55,138.3C591,490,773.79,456.39,960,436.5c309.23-33,713.27-91.35,960-170.88V210.49C1700.19,258,1372.94,289,1140.26,305.25Z"/></g></g></svg>