<svg xmlns="http://www.w3.org/2000/svg" viewBox="0 0 119.18 110.74"><defs><style>.cls-1{fill:#d32f2f;}.cls-2{fill:#fff;}</style></defs><title>youtube</title><g id="Layer_2" data-name="Layer 2"><g id="Stuff"><path class="cls-1" d="M92.74,99.44s41.32-28.59,20.65-68.82S32.36-3.83,15,11.94-4,68.87,6.57,87.49,62.29,122.48,92.74,99.44Z"/><path class="cls-2" d="M95.1,30.88c-1-2-2-3-4-3H22s-3,0-4.94,7c-.81,2.88-1,30.85-1,35s0,9,4,9,61.19,1.81,70.12,0a7,7,0,0,0,5.93-7C96.09,69.85,96.09,32.87,95.1,30.88ZM71,52.4c-1.88,2.47-25.59,16-26.88,13.47s-2-26-2-26C43.29,36.09,72.66,50.16,71,52.4Z"/></g></g></svg>